<svg width="43" height="41" viewBox="0 0 43 41" fill="none" xmlns="http://www.w3.org/2000/svg">
<path d="M29.3383 5.91641C31.4154 5.92218 33.4057 6.69231 34.8745 8.05861C36.3433 9.42491 37.1712 11.2764 37.1774 13.2086V27.7914C37.1712 29.7236 36.3433 31.5751 34.8745 32.9414C33.4057 34.3077 31.4154 35.0778 29.3383 35.0836H13.6617C11.5846 35.0778 9.59428 34.3077 8.12551 32.9414C6.65673 31.5751 5.82884 29.7236 5.82264 27.7914V13.2086C5.82884 11.2764 6.65673 9.42491 8.12551 8.05861C9.59428 6.69231 11.5846 5.92218 13.6617 5.91641H29.3383ZM29.3383 3H13.6617C7.62578 3 2.6875 7.59375 2.6875 13.2086V27.7914C2.6875 33.4062 7.62578 38 13.6617 38H29.3383C35.3742 38 40.3125 33.4062 40.3125 27.7914V13.2086C40.3125 7.59375 35.3742 3 29.3383 3Z" fill="#378AFF"/>
<path d="M31.6898 13.2085C31.2247 13.2085 30.7701 13.0802 30.3834 12.8398C29.9967 12.5995 29.6953 12.2578 29.5173 11.8581C29.3393 11.4584 29.2927 11.0186 29.3834 10.5942C29.4742 10.1699 29.6982 9.78013 30.027 9.4742C30.3559 9.16827 30.7749 8.95993 31.2311 8.87553C31.6872 8.79112 32.16 8.83444 32.5897 9.00001C33.0194 9.16558 33.3867 9.44595 33.6451 9.80569C33.9035 10.1654 34.0414 10.5884 34.0414 11.021C34.0421 11.3084 33.9817 11.5932 33.8637 11.8588C33.7458 12.1245 33.5726 12.3659 33.3541 12.5692C33.1356 12.7724 32.8761 12.9335 32.5905 13.0432C32.3049 13.153 31.9988 13.2091 31.6898 13.2085ZM21.5 14.6663C22.7403 14.6663 23.9528 15.0084 24.984 15.6494C26.0153 16.2905 26.8191 17.2015 27.2938 18.2675C27.7684 19.3334 27.8926 20.5064 27.6506 21.638C27.4086 22.7696 26.8114 23.809 25.9344 24.6249C25.0573 25.4407 23.9399 25.9963 22.7234 26.2214C21.507 26.4465 20.246 26.331 19.1002 25.8894C17.9543 25.4479 16.9748 24.7002 16.2858 23.7409C15.5967 22.7815 15.2289 21.6537 15.2289 20.4999C15.2307 18.9532 15.8919 17.4704 17.0676 16.3768C18.2433 15.2831 19.8373 14.668 21.5 14.6663ZM21.5 11.7499C19.6396 11.7499 17.821 12.2631 16.2742 13.2245C14.7273 14.186 13.5217 15.5526 12.8098 17.1514C12.0978 18.7503 11.9116 20.5096 12.2745 22.2069C12.6374 23.9043 13.5333 25.4634 14.8488 26.6871C16.1643 27.9108 17.8403 28.7442 19.6649 29.0818C21.4896 29.4194 23.3809 29.2461 25.0996 28.5838C26.8184 27.9216 28.2874 26.8001 29.321 25.3611C30.3546 23.9222 30.9063 22.2305 30.9063 20.4999C30.9063 18.1793 29.9152 15.9537 28.1512 14.3127C26.3872 12.6718 23.9947 11.7499 21.5 11.7499Z" fill="#378AFF"/>
</svg>
