<svg width="43" height="41" viewBox="0 0 43 41" fill="none" xmlns="http://www.w3.org/2000/svg">
<path d="M37.3033 3H5.90242C4.18662 3 2.6875 4.14844 2.6875 5.72578V35.0008C2.6875 36.5867 4.18662 38 5.90242 38H37.2941C39.0191 38 40.3125 36.5773 40.3125 35.0008V5.72578C40.3226 4.14844 39.0191 3 37.3033 3ZM14.3504 32.1742H8.96029V16.5844H14.3504V32.1742ZM11.8418 14.2141H11.8032C10.0781 14.2141 8.96113 13.0195 8.96113 11.5242C8.96113 10.0016 10.1075 8.83516 11.8712 8.83516C13.6349 8.83516 14.7141 9.99297 14.7527 11.5242C14.7519 13.0195 13.6349 14.2141 11.8418 14.2141ZM34.0498 32.1742H28.6597V23.65C28.6597 21.6078 27.8753 20.2125 25.9251 20.2125C24.4353 20.2125 23.5534 21.15 23.1612 22.0633C23.0142 22.3914 22.9748 22.8383 22.9748 23.2945V32.1742H17.5846V16.5844H22.9748V18.7539C23.7592 17.7148 24.9845 16.2195 27.8358 16.2195C31.374 16.2195 34.0506 18.3891 34.0506 23.0664L34.0498 32.1742Z" fill="#378AFF"/>
</svg>
